<?xml version="1.0" encoding="UTF-8" standalone="no"?>
<!DOCTYPE svg PUBLIC "-//W3C//DTD SVG 1.1//EN" "http://www.w3.org/Graphics/SVG/1.1/DTD/svg11.dtd">
<svg width="100%" height="100%" viewBox="0 0 250 76" version="1.1" xmlns="http://www.w3.org/2000/svg" xmlns:xlink="http://www.w3.org/1999/xlink" xml:space="preserve" xmlns:serif="http://www.serif.com/" style="fill-rule:evenodd;clip-rule:evenodd;stroke-linejoin:round;stroke-miterlimit:2;">
    <g transform="matrix(1,0,0,1,-429.183,-85.7541)">
        <g transform="matrix(1,0,0,1,288.991,156.026)">
            <g transform="matrix(1.26297,0,0,1.26297,-69.6873,-3.28739)">
                <g transform="matrix(0.872435,0,0,0.872435,273.061,-53.0369)">
                    <path d="M0,24.498C-3.251,24.498 -3.504,22.567 -3.504,21.975C-3.504,20.357 -3.079,19.764 -2.304,18.689L-2.061,18.348C-1.854,18.024 -1.363,17.361 -0.788,16.591C-0.193,15.793 0.852,14.394 1.488,13.403L1.009,13.403C0.31,13.403 -0.371,13.472 -1.054,13.539C-1.79,13.613 -2.553,13.688 -3.349,13.688C-3.637,13.688 -3.863,13.669 -4.089,13.647C-4.249,13.634 -4.409,13.617 -4.614,13.617C-4.929,13.617 -5.245,13.683 -5.56,13.741C-5.972,13.817 -6.438,13.903 -6.932,13.903C-9.018,13.903 -9.243,12.711 -9.243,12.199C-9.243,10.898 -8.101,10.023 -7.29,9.817C-5.396,9.545 -3.251,9.425 -0.607,9.425C-0.224,9.425 0.123,9.405 0.452,9.387C0.79,9.37 1.11,9.353 1.433,9.353C2.161,9.353 2.97,9.246 3.906,9.027C5.037,8.738 5.254,8.4 5.778,7.583C6.033,7.187 6.314,6.75 6.716,6.274L6.887,6.033C7.555,5.111 8.132,4.316 8.593,3.377C9.128,2.366 9.957,1.376 10.943,0.558C10.993,0.516 11.048,0.477 11.105,0.444C11.871,0 12.896,0 13.801,0C14.764,0 15.268,0.713 15.268,1.419C15.268,3.71 13.547,5.92 12.165,7.696C11.865,8.079 11.485,8.569 11.186,8.997C11.858,9.002 12.532,9.016 13.211,9.032C14.029,9.05 14.855,9.068 15.699,9.068C16.668,9.068 17.651,8.983 18.692,8.893C19.736,8.803 20.815,8.711 21.884,8.711L22.447,8.711C24.645,8.711 24.756,10.248 24.756,10.557C24.756,12.686 21.915,13.403 20.62,13.403C19.746,13.403 18.892,13.309 18.066,13.218C17.267,13.13 16.513,13.046 15.77,13.046C15.132,13.046 14.495,13.099 13.859,13.15C13.16,13.205 12.462,13.26 11.763,13.26C11.244,13.26 10.767,13.179 10.303,13.102C9.945,13.041 9.59,12.975 9.233,12.975C9.008,12.975 8.715,13.001 8.596,13.121C7.731,14.139 6.832,15.194 6.273,16.261C6.002,16.739 5.721,17.124 5.437,17.511C5.15,17.903 4.878,18.272 4.654,18.695C4.575,18.873 1.972,24.498 0,24.498" style="fill:rgb(0,147,214);fill-rule:nonzero;"/>
                </g>
                <g>
                    <g>
                        <g transform="matrix(0.872435,0,0,0.872435,340.476,-44.6158)">
                            <path d="M0,1.578C0,2.562 -0.062,3.547 -0.168,4.532L21.555,4.532C22.285,4.532 22.905,4.447 23.411,4.278C23.917,4.109 24.31,3.772 24.591,3.266C24.872,2.76 25.014,2.001 25.014,0.987C25.014,-0.136 24.872,-0.98 24.591,-1.542C24.31,-2.104 23.903,-2.47 23.369,-2.639C22.833,-2.807 22.2,-2.892 21.471,-2.892L-0.441,-2.954C-0.155,-1.519 0,0.001 0,1.578" style="fill:rgb(27,40,72);fill-rule:nonzero;"/>
                        </g>
                        <g transform="matrix(0.872435,0,0,0.872435,308.249,-47.1394)">
                            <path d="M0,58.883C-1.07,58.883 -1.871,58.784 -2.405,58.588C-2.939,58.39 -3.305,58.095 -3.501,57.703C-3.699,57.31 -3.797,56.803 -3.797,56.184C-3.797,52.81 -3.164,49.464 -1.898,46.144C-0.633,42.828 1.011,39.607 3.037,36.485C5.061,33.365 7.183,30.37 9.406,27.501C11.628,24.633 13.709,21.963 15.648,19.487C17.589,17.013 19.162,14.763 20.372,12.739C21.581,10.714 22.13,8.971 22.018,7.509L-6.778,7.509C-7.509,7.509 -8.169,7.424 -8.76,7.254C-9.351,7.086 -9.787,6.721 -10.068,6.158C-10.35,5.597 -10.489,4.781 -10.489,3.712C-10.489,2.587 -10.363,1.772 -10.109,1.266C-9.857,0.759 -9.478,0.423 -8.97,0.254C-8.465,0.084 -7.875,0 -7.199,0L26.826,0C27.951,0 28.766,0.198 29.272,0.591C29.779,0.984 30.116,1.518 30.284,2.194C30.454,2.869 30.538,3.628 30.538,4.471C30.538,6.946 29.891,9.49 28.598,12.106C27.303,14.72 25.658,17.407 23.662,20.162C21.665,22.918 19.514,25.759 17.209,28.682C14.902,31.608 12.751,34.574 10.755,37.583C8.759,40.592 7.114,43.656 5.82,46.777C4.526,49.899 3.88,53.091 3.88,56.352C3.88,56.915 3.782,57.38 3.584,57.745C3.387,58.109 3.022,58.39 2.488,58.588C1.953,58.784 1.124,58.883 0,58.883" style="fill:rgb(27,40,72);fill-rule:nonzero;"/>
                        </g>
                    </g>
                    <g transform="matrix(0.872435,0,0,0.872435,362.409,-5.29883)">
                        <path d="M0,-15.606C-1.153,-17.828 -2.714,-19.795 -4.682,-21.511C-6.652,-23.227 -8.928,-24.562 -11.515,-25.518C-14.102,-26.475 -16.887,-26.953 -19.866,-26.953L-21.132,-26.953C-22.932,-26.953 -24.535,-26.812 -25.94,-26.53C-27.346,-26.249 -28.627,-25.869 -29.779,-25.392C-30.341,-25.159 -30.892,-24.908 -31.434,-24.641C-32.391,-23.096 -33.422,-21.547 -34.542,-20C-35.612,-18.525 -36.734,-17.015 -37.894,-15.483C-37.323,-15.29 -36.851,-15.162 -36.485,-15.1C-35.979,-15.015 -35.473,-15.058 -34.967,-15.228C-34.517,-15.339 -34.151,-15.507 -33.87,-15.733C-33.589,-15.957 -33.224,-16.239 -32.773,-16.576C-32.043,-17.139 -31.17,-17.674 -30.158,-18.179C-29.146,-18.685 -27.909,-19.093 -26.445,-19.403C-24.984,-19.712 -23.241,-19.867 -21.216,-19.867C-18.067,-19.867 -15.353,-19.331 -13.075,-18.264C-10.797,-17.195 -9.041,-15.761 -7.803,-13.962C-6.566,-12.16 -5.946,-10.137 -5.946,-7.888C-5.946,-5.58 -6.552,-3.53 -7.762,-1.729C-8.97,0.071 -10.728,1.476 -13.034,2.488C-15.34,3.502 -18.179,4.007 -21.554,4.007C-24.31,4.007 -26.601,3.754 -28.429,3.248C-30.257,2.742 -31.748,2.138 -32.901,1.435C-34.054,0.732 -35.023,0.071 -35.81,-0.549C-36.542,-1.167 -37.132,-1.573 -37.581,-1.772C-38.032,-1.969 -38.425,-2.066 -38.763,-2.066C-39.157,-2.066 -39.592,-1.94 -40.07,-1.687C-40.55,-1.434 -41.041,-0.97 -41.547,-0.295C-42.053,0.38 -42.405,0.927 -42.6,1.35C-42.799,1.772 -42.896,2.18 -42.896,2.573C-42.896,3.136 -42.714,3.614 -42.348,4.007C-41.982,4.401 -41.519,4.851 -40.957,5.357C-40.112,5.976 -39.072,6.637 -37.836,7.34C-36.599,8.044 -35.165,8.689 -33.533,9.28C-31.903,9.869 -30.046,10.361 -27.964,10.757C-25.885,11.148 -23.55,11.347 -20.963,11.347C-16.408,11.347 -12.43,10.474 -9.026,8.731C-5.624,6.988 -2.981,4.627 -1.096,1.645C0.787,-1.336 1.73,-4.737 1.73,-8.562C1.73,-11.036 1.152,-13.384 0,-15.606" style="fill:rgb(27,40,72);fill-rule:nonzero;"/>
                    </g>
                </g>
            </g>
        </g>
        <g transform="matrix(1,0,0,1,288.991,156.026)">
            <g transform="matrix(1,0,0,1,143.979,-32.0602)">
                <path d="M0,5.732L6.995,5.732L3.51,-5.187L0,5.732ZM9.082,12.263L7.436,7.132L-0.466,7.132L-2.114,12.263L-3.787,12.263L2.497,-6.531L4.552,-6.531L10.81,12.263L9.082,12.263Z" style="fill:rgb(27,40,72);fill-rule:nonzero;"/>
            </g>
        </g>
        <g transform="matrix(1,0,0,1,288.991,156.026)">
            <g transform="matrix(1,0,0,1,164.118,-19.8921)">
                <path d="M0,-14.16C0.729,-13.894 1.445,-13.497 2.139,-12.965L1.398,-11.922C0.741,-12.381 0.118,-12.713 -0.466,-12.926C-1.052,-13.135 -1.693,-13.24 -2.387,-13.24C-3.339,-13.24 -4.107,-13.021 -4.692,-12.582C-5.279,-12.141 -5.571,-11.556 -5.571,-10.826C-5.571,-10.129 -5.319,-9.592 -4.816,-9.207C-4.314,-8.823 -3.404,-8.457 -2.085,-8.108C-0.457,-7.689 0.717,-7.158 1.441,-6.517C2.162,-5.878 2.523,-4.963 2.523,-3.774C2.523,-2.494 2.029,-1.477 1.043,-0.728C0.053,0.022 -1.182,0.396 -2.662,0.396C-3.76,0.396 -4.72,0.235 -5.543,-0.083C-6.367,-0.402 -7.116,-0.857 -7.793,-1.441L-6.915,-2.457C-6.275,-1.944 -5.62,-1.564 -4.952,-1.318C-4.284,-1.07 -3.53,-0.947 -2.688,-0.947C-1.628,-0.947 -0.773,-1.188 -0.125,-1.676C0.525,-2.16 0.851,-2.832 0.851,-3.691C0.851,-4.277 0.741,-4.752 0.52,-5.119C0.301,-5.483 -0.074,-5.801 -0.606,-6.065C-1.135,-6.329 -1.911,-6.599 -2.936,-6.874C-4.455,-7.275 -5.549,-7.78 -6.214,-8.383C-6.885,-8.986 -7.217,-9.793 -7.217,-10.797C-7.217,-11.512 -7.006,-12.157 -6.585,-12.733C-6.164,-13.309 -5.594,-13.756 -4.87,-14.077C-4.149,-14.396 -3.339,-14.556 -2.443,-14.556C-1.547,-14.556 -0.732,-14.424 0,-14.16" style="fill:rgb(27,40,72);fill-rule:nonzero;"/>
            </g>
        </g>
        <g transform="matrix(1,0,0,1,288.991,156.026)">
            <g transform="matrix(1,0,0,1,179.51,-25.9432)">
                <path d="M0,-2.058C0,-3.668 -0.333,-4.924 -1,-5.831C-1.669,-6.735 -2.662,-7.189 -3.979,-7.189C-5.167,-7.189 -6.128,-6.731 -6.86,-5.817C-7.592,-4.903 -7.995,-3.511 -8.066,-1.647L0,-1.647L0,-2.058ZM1.509,-0.412L-8.066,-0.412C-7.976,1.455 -7.532,2.84 -6.735,3.746C-5.939,4.651 -4.893,5.104 -3.596,5.104C-2.846,5.104 -2.181,4.989 -1.605,4.76C-1.029,4.532 -0.402,4.17 0.275,3.677L1.016,4.693C0.301,5.278 -0.428,5.718 -1.179,6.01C-1.929,6.302 -2.763,6.448 -3.676,6.448C-5.579,6.448 -7.07,5.798 -8.148,4.501C-9.228,3.201 -9.767,1.399 -9.767,-0.905C-9.767,-2.424 -9.535,-3.755 -9.068,-4.898C-8.602,-6.041 -7.934,-6.927 -7.065,-7.56C-6.196,-8.189 -5.185,-8.506 -4.033,-8.506C-2.204,-8.506 -0.813,-7.888 0.137,-6.652C1.089,-5.418 1.564,-3.721 1.564,-1.564C1.564,-1.162 1.544,-0.779 1.509,-0.412" style="fill:rgb(27,40,72);fill-rule:nonzero;"/>
            </g>
        </g>
        <g transform="matrix(1,0,0,1,288.991,156.026)">
            <g transform="matrix(1,0,0,1,191.556,-19.8921)">
                <path d="M0,-14.16C0.73,-13.894 1.445,-13.497 2.139,-12.965L1.398,-11.922C0.741,-12.381 0.119,-12.713 -0.466,-12.926C-1.052,-13.135 -1.693,-13.24 -2.387,-13.24C-3.339,-13.24 -4.107,-13.021 -4.692,-12.582C-5.279,-12.141 -5.571,-11.556 -5.571,-10.826C-5.571,-10.129 -5.319,-9.592 -4.816,-9.207C-4.314,-8.823 -3.404,-8.457 -2.085,-8.108C-0.458,-7.689 0.717,-7.158 1.441,-6.517C2.162,-5.878 2.523,-4.963 2.523,-3.774C2.523,-2.494 2.03,-1.477 1.043,-0.728C0.053,0.022 -1.182,0.396 -2.662,0.396C-3.76,0.396 -4.72,0.235 -5.543,-0.083C-6.367,-0.402 -7.116,-0.857 -7.792,-1.441L-6.915,-2.457C-6.275,-1.944 -5.62,-1.564 -4.953,-1.318C-4.284,-1.07 -3.53,-0.947 -2.688,-0.947C-1.628,-0.947 -0.773,-1.188 -0.124,-1.676C0.525,-2.16 0.851,-2.832 0.851,-3.691C0.851,-4.277 0.741,-4.752 0.52,-5.119C0.301,-5.483 -0.074,-5.801 -0.606,-6.065C-1.135,-6.329 -1.911,-6.599 -2.936,-6.874C-4.455,-7.275 -5.55,-7.78 -6.214,-8.383C-6.885,-8.986 -7.217,-9.793 -7.217,-10.797C-7.217,-11.512 -7.006,-12.157 -6.585,-12.733C-6.164,-13.309 -5.593,-13.756 -4.87,-14.077C-4.149,-14.396 -3.339,-14.556 -2.443,-14.556C-1.547,-14.556 -0.732,-14.424 0,-14.16" style="fill:rgb(27,40,72);fill-rule:nonzero;"/>
            </g>
        </g>
        <g transform="matrix(1,0,0,1,288.991,156.026)">
            <g transform="matrix(1,0,0,1,200.035,-22.4038)">
                <path d="M0,-9.136C-0.768,-8.093 -1.153,-6.565 -1.153,-4.554C-1.153,-2.56 -0.775,-1.042 -0.016,0.001C0.743,1.044 1.819,1.565 3.208,1.565C4.599,1.565 5.683,1.044 6.46,0.001C7.239,-1.042 7.628,-2.577 7.628,-4.611C7.628,-6.604 7.248,-8.116 6.488,-9.15C5.729,-10.183 4.644,-10.702 3.238,-10.702C1.846,-10.702 0.768,-10.179 0,-9.136M7.695,-10.082C8.766,-8.775 9.3,-6.95 9.3,-4.611C9.3,-2.285 8.755,-0.453 7.667,0.892C6.58,2.236 5.093,2.909 3.208,2.909C1.305,2.909 -0.178,2.245 -1.249,0.918C-2.32,-0.408 -2.854,-2.232 -2.854,-4.554C-2.854,-6.072 -2.608,-7.399 -2.114,-8.533C-1.619,-9.668 -0.916,-10.537 0,-11.14C0.913,-11.743 1.992,-12.045 3.238,-12.045C5.14,-12.045 6.626,-11.392 7.695,-10.082" style="fill:rgb(27,40,72);fill-rule:nonzero;"/>
            </g>
        </g>
        <g transform="matrix(1,0,0,1,288.991,156.026)">
            <g transform="matrix(1,0,0,1,220.998,-19.9622)">
                <path d="M0,-14.322L-0.301,-12.812C-0.705,-12.922 -1.126,-12.978 -1.564,-12.978C-2.535,-12.978 -3.316,-12.625 -3.91,-11.921C-4.506,-11.216 -5.004,-10.115 -5.405,-8.614L-5.405,0.165L-6.997,0.165L-6.997,-14.186L-5.625,-14.186L-5.488,-10.974C-5.104,-12.162 -4.577,-13.047 -3.91,-13.623C-3.242,-14.198 -2.415,-14.487 -1.427,-14.487C-0.86,-14.487 -0.384,-14.432 0,-14.322" style="fill:rgb(27,40,72);fill-rule:nonzero;"/>
            </g>
        </g>
        <g transform="matrix(1,0,0,1,288.991,156.026)">
            <g transform="matrix(1,0,0,1,230.454,-26.2452)">
                <path d="M0,-2.058C0,-3.668 -0.335,-4.924 -1.002,-5.831C-1.67,-6.735 -2.662,-7.189 -3.979,-7.189C-5.169,-7.189 -6.13,-6.731 -6.86,-5.817C-7.592,-4.903 -7.995,-3.511 -8.068,-1.647L0,-1.647L0,-2.058ZM1.51,-0.412L-8.068,-0.412C-7.976,1.455 -7.531,2.84 -6.737,3.746C-5.942,4.651 -4.895,5.104 -3.596,5.104C-2.846,5.104 -2.181,4.989 -1.605,4.76C-1.029,4.532 -0.404,4.17 0.275,3.677L1.013,4.693C0.301,5.278 -0.431,5.718 -1.182,6.01C-1.931,6.302 -2.763,6.448 -3.679,6.448C-5.58,6.448 -7.072,5.798 -8.15,4.501C-9.228,3.201 -9.769,1.399 -9.769,-0.905C-9.769,-2.424 -9.535,-3.755 -9.068,-4.898C-8.605,-6.041 -7.937,-6.927 -7.065,-7.56C-6.196,-8.189 -5.187,-8.506 -4.035,-8.506C-2.206,-8.506 -0.816,-7.888 0.136,-6.652C1.087,-5.418 1.562,-3.721 1.562,-1.564C1.562,-1.162 1.545,-0.779 1.51,-0.412" style="fill:rgb(27,40,72);fill-rule:nonzero;"/>
            </g>
        </g>
        <g transform="matrix(1,0,0,1,288.991,156.026)">
            <g transform="matrix(1,0,0,1,244.073,-19.8921)">
                <path d="M0,-14.16C0.733,-13.894 1.445,-13.497 2.141,-12.965L1.401,-11.922C0.741,-12.381 0.119,-12.713 -0.466,-12.926C-1.052,-13.135 -1.693,-13.24 -2.387,-13.24C-3.339,-13.24 -4.107,-13.021 -4.692,-12.582C-5.277,-12.141 -5.569,-11.556 -5.569,-10.826C-5.569,-10.129 -5.319,-9.592 -4.814,-9.207C-4.311,-8.823 -3.401,-8.457 -2.085,-8.108C-0.458,-7.689 0.719,-7.158 1.441,-6.517C2.164,-5.878 2.525,-4.963 2.525,-3.774C2.525,-2.494 2.032,-1.477 1.043,-0.728C0.056,0.022 -1.179,0.396 -2.662,0.396C-3.758,0.396 -4.718,0.235 -5.543,-0.083C-6.367,-0.402 -7.116,-0.857 -7.792,-1.441L-6.913,-2.457C-6.275,-1.944 -5.621,-1.564 -4.953,-1.318C-4.284,-1.07 -3.53,-0.947 -2.688,-0.947C-1.628,-0.947 -0.773,-1.188 -0.123,-1.676C0.527,-2.16 0.851,-2.832 0.851,-3.691C0.851,-4.277 0.741,-4.752 0.523,-5.119C0.302,-5.483 -0.074,-5.801 -0.603,-6.065C-1.134,-6.329 -1.911,-6.599 -2.936,-6.874C-4.455,-7.275 -5.547,-7.78 -6.214,-8.383C-6.882,-8.986 -7.215,-9.793 -7.215,-10.797C-7.215,-11.512 -7.004,-12.157 -6.585,-12.733C-6.162,-13.309 -5.593,-13.756 -4.87,-14.077C-4.147,-14.396 -3.339,-14.556 -2.44,-14.556C-1.545,-14.556 -0.729,-14.424 0,-14.16" style="fill:rgb(27,40,72);fill-rule:nonzero;"/>
            </g>
        </g>
        <g transform="matrix(1,0,0,1,288.991,156.026)">
            <g transform="matrix(1,0,0,1,177.757,-47.74)">
                <path d="M0,-18.96L-5.625,0L-9.933,0L-15.723,-18.96L-11.827,-18.96L-7.711,-3.212L-3.704,-18.96L0,-18.96Z" style="fill:rgb(27,40,72);fill-rule:nonzero;"/>
            </g>
        </g>
        <g transform="matrix(1,0,0,1,288.991,156.026)">
            <g transform="matrix(1,0,0,1,185.934,-58.3337)">
                <path d="M0,6.671L0,3.734L-1.455,3.734C-3.722,3.734 -4.857,4.576 -4.857,6.259C-4.857,6.954 -4.683,7.492 -4.335,7.876C-3.988,8.263 -3.475,8.455 -2.799,8.455C-1.61,8.455 -0.677,7.859 0,6.671M3.717,8.001C3.892,8.267 4.172,8.472 4.555,8.618L3.814,10.951C2.991,10.878 2.32,10.676 1.797,10.345C1.276,10.018 0.878,9.516 0.604,8.839C0.11,9.569 -0.508,10.113 -1.247,10.471C-1.99,10.827 -2.817,11.005 -3.731,11.005C-5.177,11.005 -6.321,10.594 -7.162,9.77C-8.004,8.949 -8.424,7.868 -8.424,6.532C-8.424,4.96 -7.851,3.757 -6.709,2.927C-5.566,2.094 -3.934,1.676 -1.811,1.676L0,1.676L0,0.853C0,-0.08 -0.216,-0.734 -0.645,-1.11C-1.075,-1.484 -1.764,-1.671 -2.716,-1.671C-3.777,-1.671 -5.059,-1.414 -6.559,-0.903L-7.381,-3.291C-5.57,-3.985 -3.814,-4.334 -2.112,-4.334C1.6,-4.334 3.457,-2.668 3.457,0.662L3.457,6.754C3.457,7.321 3.543,7.735 3.717,8.001" style="fill:rgb(27,40,72);fill-rule:nonzero;"/>
            </g>
        </g>
        <g transform="matrix(1,0,0,1,288.991,156.026)">
            <g transform="matrix(1,0,0,1,200.997,-65.3399)">
                <path d="M0,14.898C0.476,14.595 0.924,14.125 1.344,13.485L1.344,6.843C0.924,6.332 0.498,5.949 0.068,5.692C-0.362,5.436 -0.861,5.307 -1.427,5.307C-2.36,5.307 -3.097,5.722 -3.637,6.555C-4.176,7.39 -4.445,8.646 -4.445,10.33C-4.445,12.123 -4.208,13.407 -3.732,14.185C-3.256,14.96 -2.562,15.349 -1.646,15.349C-1.025,15.349 -0.476,15.2 0,14.898M4.857,-2.732L4.857,17.6L1.756,17.6L1.509,15.763C1.052,16.457 0.47,17.005 -0.233,17.409C-0.938,17.81 -1.738,18.012 -2.635,18.012C-4.409,18.012 -5.772,17.326 -6.721,15.955C-7.673,14.581 -8.149,12.717 -8.149,10.357C-8.149,8.873 -7.912,7.554 -7.436,6.391C-6.962,5.229 -6.279,4.321 -5.391,3.662C-4.505,3.002 -3.475,2.673 -2.306,2.673C-0.916,2.673 0.302,3.195 1.344,4.238L1.344,-3.114L4.857,-2.732Z" style="fill:rgb(27,40,72);fill-rule:nonzero;"/>
            </g>
        </g>
        <g transform="matrix(1,0,0,1,288.991,156.026)">
            <g transform="matrix(-1,0,0,1,290.456,-188.031)">
                <rect x="76.865" y="125.778" width="3.512" height="14.514" style="fill:rgb(27,40,72);"/>
            </g>
        </g>
        <g transform="matrix(1,0,0,1,288.991,156.026)">
            <g transform="matrix(1,0,0,1,218.626,-67.4805)">
                <path d="M0,19.178C-0.632,18.528 -0.946,17.611 -0.946,16.421L-0.946,-0.591L2.566,-0.974L2.566,16.312C2.566,16.988 2.84,17.327 3.389,17.327C3.664,17.327 3.938,17.28 4.213,17.189L4.952,19.657C4.222,19.988 3.443,20.152 2.62,20.152C1.504,20.152 0.632,19.828 0,19.178" style="fill:rgb(27,40,72);fill-rule:nonzero;"/>
            </g>
        </g>
        <g transform="matrix(1,0,0,1,288.991,156.026)">
            <g transform="matrix(1,0,0,1,226.72,-67.4805)">
                <path d="M0,19.178C-0.632,18.528 -0.946,17.611 -0.946,16.421L-0.946,-0.591L2.566,-0.974L2.566,16.312C2.566,16.988 2.841,17.327 3.389,17.327C3.664,17.327 3.939,17.28 4.213,17.189L4.953,19.657C4.222,19.988 3.443,20.152 2.62,20.152C1.504,20.152 0.632,19.828 0,19.178" style="fill:rgb(27,40,72);fill-rule:nonzero;"/>
            </g>
        </g>
        <g transform="matrix(1,0,0,1,288.991,156.026)">
            <g transform="matrix(1,0,0,1,236.64,-54.9861)">
                <path d="M0,-0.024C0,1.695 0.26,2.962 0.782,3.776C1.303,4.588 2.085,4.996 3.128,4.996C4.171,4.996 4.952,4.585 5.474,3.76C5.993,2.939 6.254,1.678 6.254,-0.024C6.254,-1.726 5.993,-2.982 5.474,-3.798C4.952,-4.61 4.18,-5.019 3.155,-5.019C1.051,-5.019 0,-3.354 0,-0.024M8.162,-5.635C9.361,-4.273 9.96,-2.402 9.96,-0.024C9.96,1.495 9.685,2.834 9.135,3.994C8.589,5.156 7.8,6.059 6.777,6.697C5.752,7.338 4.536,7.657 3.128,7.657C0.987,7.657 -0.686,6.975 -1.893,5.613C-3.101,4.251 -3.704,2.372 -3.704,-0.024C-3.704,-1.542 -3.429,-2.879 -2.881,-4.03C-2.331,-5.182 -1.542,-6.08 -0.508,-6.721C0.525,-7.36 1.747,-7.681 3.155,-7.681C5.296,-7.681 6.964,-6.997 8.162,-5.635" style="fill:rgb(27,40,72);fill-rule:nonzero;"/>
            </g>
        </g>
        <g transform="matrix(1,0,0,1,288.991,156.026)">
            <g transform="matrix(1,0,0,1,133.214,-213.072)">
                <rect x="76.865" y="143.811" width="3.489" height="3.489" style="fill:rgb(27,40,72);"/>
            </g>
        </g>
        <g transform="matrix(1,0,0,1,288.991,156.026)">
            <g transform="matrix(1,0,0,1,199.997,4.98437)">
                <path d="M0,-12.31C0.476,-12.138 0.951,-11.866 1.427,-11.486L1.191,-11.193C0.75,-11.535 0.307,-11.785 -0.145,-11.943C-0.596,-12.102 -1.096,-12.183 -1.645,-12.183C-2.427,-12.183 -3.157,-11.97 -3.841,-11.551C-4.524,-11.131 -5.082,-10.475 -5.516,-9.583C-5.946,-8.695 -6.162,-7.578 -6.162,-6.237C-6.162,-4.248 -5.752,-2.737 -4.928,-1.701C-4.107,-0.663 -2.981,-0.145 -1.554,-0.145C-0.504,-0.145 0.451,-0.396 1.318,-0.896L1.318,-6.017L-1.335,-6.017L-1.389,-6.402L1.74,-6.402L1.74,-0.675C0.677,-0.053 -0.42,0.257 -1.554,0.257C-2.566,0.257 -3.449,0.014 -4.207,-0.474C-4.964,-0.962 -5.55,-1.695 -5.962,-2.67C-6.378,-3.646 -6.585,-4.834 -6.585,-6.237C-6.585,-7.613 -6.351,-8.78 -5.88,-9.73C-5.41,-10.682 -4.8,-11.392 -4.05,-11.861C-3.3,-12.33 -2.498,-12.567 -1.645,-12.567C-1.022,-12.567 -0.475,-12.479 0,-12.31" style="fill:rgb(27,40,72);fill-rule:nonzero;"/>
            </g>
        </g>
        <g transform="matrix(1,0,0,1,288.991,156.026)">
            <g transform="matrix(1,0,0,1,208.302,-1.08953)">
                <path d="M0,-0.162C1.06,-0.162 1.893,-0.404 2.498,-0.886C3.101,-1.369 3.403,-2.097 3.403,-3.071C3.403,-4.01 3.113,-4.72 2.535,-5.203C1.953,-5.684 1,-5.926 -0.329,-5.926L-2.58,-5.926L-2.58,-0.162L0,-0.162ZM0.475,0.222L-2.58,0.222L-2.58,6.148L-2.999,6.148L-2.999,-6.31L-0.275,-6.31C1.141,-6.31 2.177,-6.035 2.836,-5.487C3.493,-4.937 3.822,-4.134 3.822,-3.071C3.822,-2.108 3.563,-1.369 3.046,-0.848C2.528,-0.329 1.817,0.006 0.916,0.166L4.41,6.148L3.914,6.148L0.475,0.222Z" style="fill:rgb(27,40,72);fill-rule:nonzero;"/>
            </g>
        </g>
        <g transform="matrix(1,0,0,1,288.991,156.026)">
            <g transform="matrix(1,0,0,1,223.084,-3.42783)">
                <path d="M0,4.699C0,5.908 -0.312,6.87 -0.934,7.591C-1.556,8.309 -2.507,8.67 -3.787,8.67C-5.079,8.67 -6.038,8.309 -6.659,7.591C-7.281,6.87 -7.591,5.908 -7.591,4.699L-7.591,-3.971L-7.172,-3.971L-7.172,4.646C-7.172,5.779 -6.901,6.667 -6.357,7.307C-5.814,7.946 -4.958,8.267 -3.787,8.267C-2.628,8.267 -1.778,7.944 -1.235,7.298C-0.692,6.651 -0.421,5.766 -0.421,4.646L-0.421,-3.971L0,-3.971L0,4.699Z" style="fill:rgb(27,40,72);fill-rule:nonzero;"/>
            </g>
        </g>
        <g transform="matrix(1,0,0,1,288.991,156.026)">
            <g transform="matrix(1,0,0,1,232.807,-1.08883)">
                <path d="M0,-0.163C0.7,-0.676 1.051,-1.516 1.051,-2.688C1.051,-3.835 0.725,-4.661 0.074,-5.167C-0.582,-5.672 -1.57,-5.926 -2.9,-5.926L-5.004,-5.926L-5.004,0.605L-2.955,0.605C-1.687,0.605 -0.701,0.348 0,-0.163M0.384,-5.442C1.12,-4.862 1.489,-3.95 1.489,-2.707C1.489,-1.424 1.094,-0.489 0.301,0.103C-0.492,0.695 -1.59,0.989 -2.992,0.989L-5.004,0.989L-5.004,6.148L-5.424,6.148L-5.424,-6.311L-2.9,-6.311C-1.45,-6.311 -0.356,-6.021 0.384,-5.442" style="fill:rgb(27,40,72);fill-rule:nonzero;"/>
            </g>
        </g>
        <g transform="matrix(1,0,0,1,288.991,156.026)">
            <g transform="matrix(1,0,0,1,239.3,4.15137)">
                <path d="M0,-10.644C-0.665,-10.176 -1.184,-9.485 -1.556,-8.579C-1.927,-7.67 -2.112,-6.576 -2.112,-5.293C-2.112,-4.025 -1.929,-2.943 -1.566,-2.046C-1.2,-1.152 -0.681,-0.47 -0.009,-0.008C0.661,0.457 1.443,0.688 2.331,0.688C3.747,0.688 4.843,0.173 5.625,-0.859C6.404,-1.888 6.795,-3.374 6.795,-5.312C6.795,-7.263 6.395,-8.757 5.599,-9.793C4.799,-10.829 3.709,-11.35 2.331,-11.35C1.443,-11.35 0.663,-11.113 0,-10.644M4.91,-10.993C5.642,-10.499 6.21,-9.773 6.612,-8.816C7.013,-7.857 7.217,-6.689 7.217,-5.312C7.217,-3.3 6.786,-1.73 5.926,-0.603C5.067,0.525 3.867,1.089 2.331,1.089C1.355,1.089 0.502,0.839 -0.229,0.34C-0.96,-0.16 -1.527,-0.889 -1.929,-1.846C-2.333,-2.805 -2.535,-3.951 -2.535,-5.293C-2.535,-6.636 -2.329,-7.79 -1.92,-8.759C-1.511,-9.731 -0.942,-10.468 -0.21,-10.975C0.52,-11.479 1.369,-11.733 2.331,-11.733C3.321,-11.733 4.181,-11.486 4.91,-10.993" style="fill:rgb(27,40,72);fill-rule:nonzero;"/>
            </g>
        </g>
    </g>
</svg>
